# xmcd
#
# Track frame offsets:
# 150
# 16882
# 34502
# 48852
# 62245
# 83212
# 97092
# 127952
# 158477
# 185182
#
# Disc length: 3933 seconds
#
# Revision: 0
# Processed by: cddbd v1.4PL0 Copyright (c) Steve Scherf et al.
# Submitted via: Audion 2.5.0 (http://www.panic.com/audion/)
#
DISCID=790f5b0a
DTITLE=1111 - 11
DYEAR=1900
DGENRE=
TTITLE0=11
TTITLE1=1
TTITLE2=11
TTITLE3=11
TTITLE4=1
TTITLE5=1
TTITLE6=11
TTITLE7=1
TTITLE8=1
TTITLE9=1
EXTD=
EXTT0=
EXTT1=
EXTT2=
EXTT3=
EXTT4=
EXTT5=
EXTT6=
EXTT7=
EXTT8=
EXTT9=
PLAYORDER=
